<?xml version="1.0" encoding="UTF-8" standalone="no"?>
<svg
   xmlns:dc="http://purl.org/dc/elements/1.1/"
   xmlns:cc="http://creativecommons.org/ns#"
   xmlns:rdf="http://www.w3.org/1999/02/22-rdf-syntax-ns#"
   xmlns:svg="http://www.w3.org/2000/svg"
   xmlns="http://www.w3.org/2000/svg"
   id="svg6"
   version="1.1"
   height="18px"
   width="18px"
   fill="black"
   viewBox="0 0 24 24">
  <metadata
     id="metadata12">
    <rdf:RDF>
      <cc:Work
         rdf:about="">
        <dc:format>image/svg+xml</dc:format>
        <dc:type
           rdf:resource="http://purl.org/dc/dcmitype/StillImage" />
        <dc:title></dc:title>
      </cc:Work>
    </rdf:RDF>
  </metadata>
  <defs
     id="defs10" />
  <path
     id="path4"
     fill="none"
     d="M0 0h24v24H0z" />
  <g
     id="flowRoot9"
     style="font-style:normal;font-weight:normal;font-size:1.33333337px;line-height:1.25;font-family:sans-serif;letter-spacing:0px;word-spacing:0px;fill:#000000;fill-opacity:1;stroke:none"
     transform="scale(1.3333333)"
     aria-label="CT
RL">
    <path
       id="path21"
       d="m 6.5574375,1.4139424 c -0.784341,0 -1.45,0.1840673 -1.994681,0.4857629 -0.537419,0.3016957 -0.949479,0.7706159 -1.232713,1.3033977 -0.283234,0.5327816 -0.422873,1.1473625 -0.422873,1.8406206 0,0.7060962 0.124089,1.3254694 0.371011,1.8582511 0.246922,0.5263628 0.629316,0.9353296 1.144947,1.2306065 0.522894,0.2888575 1.183848,0.4337095 1.982713,0.4337095 0.413958,0 0.78694,-0.026855 1.121011,-0.084626 0.334071,-0.057772 0.671964,-0.1495474 1.013298,-0.2715094 V 6.986601 c -0.370384,0.1155435 -0.717689,0.207319 -1.037235,0.2715091 -0.312283,0.06419 -0.625932,0.095205 -0.945478,0.095205 -0.682667,0 -1.179738,-0.1979283 -1.492021,-0.5959097 -0.305022,-0.4044006 -0.458777,-0.9713307 -0.458777,-1.7031031 0,-0.7253534 0.168588,-1.2964425 0.502659,-1.7136814 0.334071,-0.4172388 0.816309,-0.6276449 1.448139,-0.6276449 0.283234,-10e-8 0.567217,0.044125 0.857712,0.1339917 0.297759,0.089867 0.595142,0.1953863 0.885639,0.3173483 L 8.8313735,1.9830747 C 8.4755155,1.835436 8.1025335,1.6485927 7.7103625,1.5651455 7.3254555,1.4752783 6.9423455,1.4139424 6.5574375,1.4139424 Z M 9.7500002,1.5 v 1.5050653 h 1.4722118 v 5.2977942 h 1.546254 V 3.0050653 H 15.00453 V 1.5 Z M 3.6770063,9.7458226 V 16.5 H 5.1867501 V 13.858956 H 6.2062623 L 8.0573263,16.5 h 1.827128 l -2.285904,-2.997179 c 0.254184,-0.102704 0.492234,-0.230919 0.710106,-0.391396 0.225134,-0.166895 0.399862,-0.36835 0.530585,-0.599436 0.137986,-0.237506 0.207447,-0.514099 0.207447,-0.828632 0,-0.693258 -0.2536,-1.086041 -0.761968,-1.426251 C 7.7836133,9.9168961 7.0032763,9.7458226 5.9429643,9.7458226 Z M 10.5,9.7500002 V 16.5 H 15 V 15 H 12 V 9.7500002 Z M 5.3206243,10.941168 h 0.502659 c 0.537419,0 0.92994,0.07035 1.176862,0.211566 0.254185,0.1348 0.37899,0.242038 0.37899,0.56941 0,0.314535 -0.119383,0.551795 -0.359043,0.712271 -0.232397,0.160476 -0.6202131,0.2433 -1.164894,0.2433 h -0.534574 z"
       style="font-style:normal;font-variant:normal;font-weight:bold;font-stretch:normal;font-size:5.33333349px;font-family:sans-serif;-inkscape-font-specification:'sans-serif Bold';stroke-width:1.92029786" />
  </g>
</svg>
