<?xml version="1.0" encoding="UTF-8" standalone="no"?>
<svg
   xmlns:dc="http://purl.org/dc/elements/1.1/"
   xmlns:cc="http://creativecommons.org/ns#"
   xmlns:rdf="http://www.w3.org/1999/02/22-rdf-syntax-ns#"
   xmlns:svg="http://www.w3.org/2000/svg"
   xmlns="http://www.w3.org/2000/svg"
   id="svg4"
   version="1.1"
   height="18px"
   width="18px"
   fill="black"
   viewBox="0 0 24 24">
  <metadata
     id="metadata10">
    <rdf:RDF>
      <cc:Work
         rdf:about="">
        <dc:format>image/svg+xml</dc:format>
        <dc:type
           rdf:resource="http://purl.org/dc/dcmitype/StillImage" />
        <dc:title></dc:title>
      </cc:Work>
    </rdf:RDF>
  </metadata>
  <defs
     id="defs8" />
  <path
     d="m 17,7.6381253 c -1.35,0 -2.6068,2.7040317 -2.95,3.4666677 -0.272688,0.671224 -1.18,3.266667 -2.05,3.266667 -0.9,0 -1.80892,-2.568899 -2.05,-3.266667 C 9.5841108,10.347809 8.38,7.6381253 7,7.6381253 c -1.38,0 -2.5611452,2.7262677 -2.95,3.4666677 C 3.7793543,11.776843 2.88,14.37146 2,14.37146 v 1.95 c 1.35,0 2.5892383,-2.71218 2.95,-3.466667 C 5.1995789,12.160019 6.1,9.5881263 7,9.5881263 c 0.9,0 1.7873646,2.5767227 2.05,3.2666667 0.3688261,0.755558 1.57,3.466667 2.95,3.466667 1.38,0 2.612878,-2.701325 2.95,-3.466667 0.230561,-0.701314 1.15,-3.2666667 2.05,-3.2666667 0.9,0 1.75773,2.5887447 2.05,3.2666667 0.353891,0.762667 1.58,3.466667 2.95,3.466667 v -1.95 c -0.9,0 -1.81429,-2.567066 -2.05,-3.266667 C 19.596196,10.342086 18.35,7.6381253 17,7.6381253 Z"
     id="path21" />
</svg>
