<?xml version="1.0" encoding="UTF-8" standalone="no"?>
<svg
   xmlns:dc="http://purl.org/dc/elements/1.1/"
   xmlns:cc="http://creativecommons.org/ns#"
   xmlns:rdf="http://www.w3.org/1999/02/22-rdf-syntax-ns#"
   xmlns:svg="http://www.w3.org/2000/svg"
   xmlns="http://www.w3.org/2000/svg"
   width="30.371428"
   viewBox="0 0 30.371428 36.056869"
   version="1.1"
   height="36.05687"
   id="svg2">
  <metadata
     id="metadata10">
    <rdf:RDF>
      <cc:Work
         rdf:about="">
        <dc:format>image/svg+xml</dc:format>
        <dc:type
           rdf:resource="http://purl.org/dc/dcmitype/StillImage" />
        <dc:title></dc:title>
      </cc:Work>
    </rdf:RDF>
  </metadata>
  <defs
     id="defs8" />
  <path
     d="m 29.734888,28.099251 c -0.545287,1.259726 -1.19073,2.419297 -1.938553,3.485392 -1.019356,1.453357 -1.85398,2.459359 -2.497197,3.018001 -0.997098,0.916974 -2.065417,1.386589 -3.20941,1.413298 -0.82127,0 -1.811692,-0.233696 -2.964586,-0.707761 -1.156678,-0.471844 -2.219656,-0.705537 -3.191604,-0.705537 -1.019354,0 -2.112602,0.233693 -3.281966,0.705537 -1.171146,0.474065 -2.114605,0.721115 -2.8359433,0.745597 C 8.7185981,36.100517 7.6251298,35.617548 6.5336625,34.602644 5.8370299,33.995037 4.9656822,32.953424 3.9218445,31.477808 2.8018901,29.902039 1.8811324,28.074768 1.1597942,25.991546 0.38726579,23.741398 0,21.562471 0,19.452986 0,17.036582 0.52214113,14.952469 1.5679812,13.205989 2.3899194,11.803153 3.4833887,10.696552 4.8519497,9.8841837 6.2205116,9.0718163 7.6992438,8.6578426 9.2917078,8.6313566 c 0.8713472,0 2.0140042,0.2695281 3.4339782,0.799237 1.415969,0.5314886 2.325154,0.8010164 2.723769,0.8010164 0.298017,0 1.308024,-0.3151543 3.020228,-0.943459 1.619173,-0.582679 2.985731,-0.8239421 4.10524,-0.7289061 3.033582,0.2448236 5.312664,1.4406734 6.828342,3.5951181 -2.713086,1.643876 -4.055162,3.946326 -4.028454,6.900006 0.02448,2.300671 0.859106,4.215187 2.499422,5.735318 0.743371,0.705535 1.573545,1.250823 2.497194,1.638089 -0.200308,0.580898 -0.411746,1.137315 -0.636539,1.671475 z M 22.77746,0.72134267 c 0,1.80325523 -0.658798,3.48694943 -1.97194,5.04535943 -1.584675,1.8526446 -3.501417,2.9231893 -5.579966,2.7542619 -0.02649,-0.2163353 -0.04184,-0.4440201 -0.04184,-0.683279 0,-1.7311234 0.753611,-3.5837672 2.091904,-5.0985549 C 17.94376,1.9721665 18.793519,1.3344466 19.824002,0.82572529 20.852258,0.32459452 21.824875,0.04745838 22.739622,0 c 0.02671,0.24106706 0.03784,0.48214929 0.03784,0.7213193 z"
     id="path4"
     style="fill:#ffffff;stroke-width:0.03037142" />
</svg>
