<?xml version="1.0" encoding="UTF-8" standalone="no"?>
<svg
   xmlns:dc="http://purl.org/dc/elements/1.1/"
   xmlns:cc="http://creativecommons.org/ns#"
   xmlns:rdf="http://www.w3.org/1999/02/22-rdf-syntax-ns#"
   xmlns:svg="http://www.w3.org/2000/svg"
   xmlns="http://www.w3.org/2000/svg"
   id="svg10"
   version="1.1"
   width="64"
   viewBox="0 0 64 64"
   height="64">
  <metadata
     id="metadata16">
    <rdf:RDF>
      <cc:Work
         rdf:about="">
        <dc:format>image/svg+xml</dc:format>
        <dc:type
           rdf:resource="http://purl.org/dc/dcmitype/StillImage" />
        <dc:title></dc:title>
      </cc:Work>
    </rdf:RDF>
  </metadata>
  <defs
     id="defs14" />
  <g
     style="fill:none"
     id="g6"
     transform="matrix(2.4714564,0,0,2.4714564,-10.118647,-9.3824344)">
    <path
       style="fill:#000000"
       id="path4"
       d="m 22.257931,8.8 h 1.607617 C 26.966324,8.8 29.48,11.313676 29.48,14.414452 v 0.330015 c 0,3.100776 -2.513676,5.614452 -5.614452,5.614452 h -1.607617 v 1.689795 c 0,1.431128 -1.160158,2.591286 -2.591286,2.591286 H 7.4312857 C 6.0001581,24.64 4.84,23.479842 4.84,22.048714 V 10.095643 C 4.84,9.3800791 5.4200791,8.8 6.1356429,8.8 Z m 0,2.996757 v 5.565405 h 1.465573 c 1.536844,0 2.782703,-1.245858 2.782703,-2.782702 0,-1.536845 -1.245859,-2.782703 -2.782703,-2.782703 z" />
  </g>
  <path
     style="fill:#ffffff;stroke-width:2.47145629"
     id="path8"
     d="m 22.504578,25.407876 c 0.98931,-2.894645 3.33385,-4.341967 7.03362,-4.341967 5.549655,0 7.607056,6.904384 4.698075,11.418128 -1.93932,3.009162 -5.849886,6.815207 -11.731695,11.418129 -5.88181,-4.602922 -9.792375,-8.408967 -11.731695,-11.418129 -2.9089808,-4.513744 -0.8515806,-11.418128 4.698076,-11.418128 3.699769,0 6.04431,1.447322 7.033619,4.341967 z" />
</svg>
