<?xml version="1.0" encoding="UTF-8" standalone="no"?>
<svg
   xmlns:dc="http://purl.org/dc/elements/1.1/"
   xmlns:cc="http://creativecommons.org/ns#"
   xmlns:rdf="http://www.w3.org/1999/02/22-rdf-syntax-ns#"
   xmlns:svg="http://www.w3.org/2000/svg"
   xmlns="http://www.w3.org/2000/svg"
   height="37.721443"
   width="37.714905"
   xml:space="preserve"
   viewBox="0 0 37.714906 37.721445"
   y="0px"
   x="0px"
   id="Capa_1"
   version="1.1"><metadata
   id="metadata83"><rdf:RDF><cc:Work
       rdf:about=""><dc:format>image/svg+xml</dc:format><dc:type
         rdf:resource="http://purl.org/dc/dcmitype/StillImage" /><dc:title></dc:title></cc:Work></rdf:RDF></metadata><defs
   id="defs81" />
<g
   style="fill:#ffffff"
   transform="matrix(0.07611114,0,0,0.07611114,-0.00327278,0)"
   id="g46">
	<g
   style="fill:#ffffff"
   id="g14">
		<g
   style="fill:#ffffff"
   id="g12">
			<path
   style="fill:#ffffff"
   id="path2"
   d="M 441.899,0 H 53.754 C 24.224,0 0.043,24.202 0.043,53.754 v 388.102 c 0,29.574 24.181,53.754 53.711,53.754 h 388.102 c 29.574,0 53.711,-24.224 53.711,-53.754 V 53.754 C 495.632,24.202 471.429,0 441.899,0 Z m -13.978,44.414 c 13.978,0 25.367,11.346 25.367,25.367 0,14.021 -11.325,25.367 -25.367,25.367 -14.043,0 -25.367,-11.346 -25.367,-25.367 0,-14.021 11.368,-25.367 25.367,-25.367 z m -79.143,-0.021 c 13.999,0 25.389,11.346 25.389,25.389 0,14.043 -11.368,25.388 -25.389,25.388 -14.021,0 -25.389,-11.346 -25.389,-25.389 0,-14.043 11.389,-25.388 25.389,-25.388 z M 454.971,449.514 H 40.747 V 131.56 h 414.224 z" />
			<rect
   style="fill:#ffffff"
   id="rect4"
   height="79.208"
   width="79.228996"
   y="317.047"
   x="128.13" />
			<rect
   style="fill:#ffffff"
   id="rect6"
   height="79.208"
   width="79.250999"
   y="317.047"
   x="291.55099" />
			<rect
   style="fill:#ffffff"
   id="rect8"
   height="79.185997"
   width="79.228996"
   y="188.291"
   x="128.13" />
			<rect
   style="fill:#ffffff"
   id="rect10"
   height="79.185997"
   width="79.250999"
   y="188.291"
   x="291.55099" />
		</g>
	</g>
	<g
   style="fill:#ffffff"
   id="g16">
	</g>
	<g
   style="fill:#ffffff"
   id="g18">
	</g>
	<g
   style="fill:#ffffff"
   id="g20">
	</g>
	<g
   style="fill:#ffffff"
   id="g22">
	</g>
	<g
   style="fill:#ffffff"
   id="g24">
	</g>
	<g
   style="fill:#ffffff"
   id="g26">
	</g>
	<g
   style="fill:#ffffff"
   id="g28">
	</g>
	<g
   style="fill:#ffffff"
   id="g30">
	</g>
	<g
   style="fill:#ffffff"
   id="g32">
	</g>
	<g
   style="fill:#ffffff"
   id="g34">
	</g>
	<g
   style="fill:#ffffff"
   id="g36">
	</g>
	<g
   style="fill:#ffffff"
   id="g38">
	</g>
	<g
   style="fill:#ffffff"
   id="g40">
	</g>
	<g
   style="fill:#ffffff"
   id="g42">
	</g>
	<g
   style="fill:#ffffff"
   id="g44">
	</g>
</g>
<g
   transform="translate(-0.043)"
   id="g48">
</g>
<g
   transform="translate(-0.043)"
   id="g50">
</g>
<g
   transform="translate(-0.043)"
   id="g52">
</g>
<g
   transform="translate(-0.043)"
   id="g54">
</g>
<g
   transform="translate(-0.043)"
   id="g56">
</g>
<g
   transform="translate(-0.043)"
   id="g58">
</g>
<g
   transform="translate(-0.043)"
   id="g60">
</g>
<g
   transform="translate(-0.043)"
   id="g62">
</g>
<g
   transform="translate(-0.043)"
   id="g64">
</g>
<g
   transform="translate(-0.043)"
   id="g66">
</g>
<g
   transform="translate(-0.043)"
   id="g68">
</g>
<g
   transform="translate(-0.043)"
   id="g70">
</g>
<g
   transform="translate(-0.043)"
   id="g72">
</g>
<g
   transform="translate(-0.043)"
   id="g74">
</g>
<g
   transform="translate(-0.043)"
   id="g76">
</g>
</svg>