<?xml version="1.0" encoding="UTF-8" standalone="no"?>
<svg
   xmlns:dc="http://purl.org/dc/elements/1.1/"
   xmlns:cc="http://creativecommons.org/ns#"
   xmlns:rdf="http://www.w3.org/1999/02/22-rdf-syntax-ns#"
   xmlns:svg="http://www.w3.org/2000/svg"
   xmlns="http://www.w3.org/2000/svg"
   height="33.216591"
   width="33.216591"
   xml:space="preserve"
   viewBox="0 0 33.216591 33.216591"
   y="0px"
   x="0px"
   id="Capa_1"
   version="1.1"><metadata
   id="metadata39"><rdf:RDF><cc:Work
       rdf:about=""><dc:format>image/svg+xml</dc:format><dc:type
         rdf:resource="http://purl.org/dc/dcmitype/StillImage" /><dc:title></dc:title></cc:Work></rdf:RDF></metadata><defs
   id="defs37" />
<path
   style="stroke-width:0.06487615"
   id="path2"
   d="M 10.255025,25.008318 H 26.86332 c 1.146495,0 2.076036,-0.929415 2.076036,-2.076037 V 2.1719104 c 0,-1.1466212 -0.929541,-2.07603709 -2.076036,-2.07603709 H 22.711247 V 8.4000215 L 19.597191,6.3239849 16.483136,8.4000215 V 0.09587331 H 8.1789876 c -2.292983,0 -4.1520744,1.85883179 -4.1520744,4.15207419 v 20.7603705 2.076038 c 0,3.434414 2.7937618,6.228111 6.2281118,6.228111 H 26.86332 c 1.146495,0 2.076036,-0.929546 2.076036,-2.076037 0,-1.146492 -0.929541,-2.076037 -2.076036,-2.076037 H 10.255025 c -1.144935,0 -2.0760374,-0.931103 -2.0760374,-2.076037 0,-1.144935 0.9311024,-2.076038 2.0760374,-2.076038 z" />
<g
   transform="matrix(0.06487616,0,0,0.06487616,-0.1251612,0.09587331)"
   id="g4">
</g>
<g
   transform="matrix(0.06487616,0,0,0.06487616,-0.1251612,0.09587331)"
   id="g6">
</g>
<g
   transform="matrix(0.06487616,0,0,0.06487616,-0.1251612,0.09587331)"
   id="g8">
</g>
<g
   transform="matrix(0.06487616,0,0,0.06487616,-0.1251612,0.09587331)"
   id="g10">
</g>
<g
   transform="matrix(0.06487616,0,0,0.06487616,-0.1251612,0.09587331)"
   id="g12">
</g>
<g
   transform="matrix(0.06487616,0,0,0.06487616,-0.1251612,0.09587331)"
   id="g14">
</g>
<g
   transform="matrix(0.06487616,0,0,0.06487616,-0.1251612,0.09587331)"
   id="g16">
</g>
<g
   transform="matrix(0.06487616,0,0,0.06487616,-0.1251612,0.09587331)"
   id="g18">
</g>
<g
   transform="matrix(0.06487616,0,0,0.06487616,-0.1251612,0.09587331)"
   id="g20">
</g>
<g
   transform="matrix(0.06487616,0,0,0.06487616,-0.1251612,0.09587331)"
   id="g22">
</g>
<g
   transform="matrix(0.06487616,0,0,0.06487616,-0.1251612,0.09587331)"
   id="g24">
</g>
<g
   transform="matrix(0.06487616,0,0,0.06487616,-0.1251612,0.09587331)"
   id="g26">
</g>
<g
   transform="matrix(0.06487616,0,0,0.06487616,-0.1251612,0.09587331)"
   id="g28">
</g>
<g
   transform="matrix(0.06487616,0,0,0.06487616,-0.1251612,0.09587331)"
   id="g30">
</g>
<g
   transform="matrix(0.06487616,0,0,0.06487616,-0.1251612,0.09587331)"
   id="g32">
</g>
</svg>