<?xml version="1.0" encoding="UTF-8" standalone="no"?>
<svg
   xmlns:dc="http://purl.org/dc/elements/1.1/"
   xmlns:cc="http://creativecommons.org/ns#"
   xmlns:rdf="http://www.w3.org/1999/02/22-rdf-syntax-ns#"
   xmlns:svg="http://www.w3.org/2000/svg"
   xmlns="http://www.w3.org/2000/svg"
   height="32.59185"
   width="32.625591"
   version="1.1"
   viewBox="0 0 32.62559 32.591852"
   id="logosandtypes_com">
  <metadata
     id="metadata13">
    <rdf:RDF>
      <cc:Work
         rdf:about="">
        <dc:format>image/svg+xml</dc:format>
        <dc:type
           rdf:resource="http://purl.org/dc/dcmitype/StillImage" />
        <dc:title></dc:title>
      </cc:Work>
    </rdf:RDF>
  </metadata>
  <defs
     id="defs11" />
  <path
     style="fill:none"
     id="path2"
     d="m -15,-12.55216 h 150 v 150 H -15 Z" />
  <g
     transform="matrix(0.2694703,0,0,0.2694703,-4.0420545,-3.4363283)"
     style="fill:#000000"
     id="g6">
    <path
       style="fill:#000000"
       id="path4"
       d="M 15,71.6 C 15,43.4 37.9,17 68.1,13.2 c 21.6,-2.5 38,5.8 49.3,16.6 10.6,10.1 16.9,22.9 18.4,38 1.3,15.1 -2,28.2 -10.8,40.5 -8.8,12.1 -26.2,25.4 -47.8,25.4 H 47.8 V 75.6 c 0.3,-12.8 4.5,-23.9 20.1,-29.2 13.6,-4 29.5,3.5 34.2,17.9 5,15.4 -2.3,25.7 -10.8,32 -8.6,6.3 -21.9,6.3 -30.7,0.3 v 19.9 c 5.8,2.8 13.1,3.5 18.4,3.3 19.1,-2.8 34,-13.6 40.3,-30 6.5,-17.4 2,-37.5 -11.6,-50.1 C 91.3,26.3 73.4,23 54.3,32.3 41,39.1 31.7,52.9 29.4,68 v 65.7 H 15.3 Z" />
  </g>
</svg>
