<?xml version="1.0" encoding="UTF-8" standalone="no"?>
<svg
   xmlns:dc="http://purl.org/dc/elements/1.1/"
   xmlns:cc="http://creativecommons.org/ns#"
   xmlns:rdf="http://www.w3.org/1999/02/22-rdf-syntax-ns#"
   xmlns:svg="http://www.w3.org/2000/svg"
   xmlns="http://www.w3.org/2000/svg"
   id="svg913"
   version="1.1"
   viewBox="0 0 24 24"
   height="24"
   width="24">
  <defs
     id="defs907" />
  <metadata
     id="metadata910">
    <rdf:RDF>
      <cc:Work
         rdf:about="">
        <dc:format>image/svg+xml</dc:format>
        <dc:type
           rdf:resource="http://purl.org/dc/dcmitype/StillImage" />
        <dc:title></dc:title>
      </cc:Work>
    </rdf:RDF>
  </metadata>
  <g
     transform="translate(0,-290.65)"
     id="layer1">
    <path
       d="m 11.998964,292.33056 c -5.842564,0 -10.5796199,4.73706 -10.5796199,10.58092 0,4.6747 3.0313781,8.64009 7.235816,10.03984 0.5293707,0.0967 0.7222828,-0.22981 0.7222828,-0.51052 0,-0.25078 -0.00908,-0.91648 -0.014304,-1.79919 -2.9430419,0.63911 -3.5639968,-1.41862 -3.5639968,-1.41862 -0.4813055,-1.22174 -1.1750083,-1.54716 -1.1750083,-1.54716 -0.9606615,-0.65669 0.072747,-0.64371 0.072747,-0.64371 1.0619891,0.0754 1.6205889,1.09058 1.6205889,1.09058 0.9437738,1.6167 2.4766759,1.14968 3.0794444,0.87948 0.09613,-0.68397 0.3689357,-1.15033 0.6716189,-1.41471 -2.3493672,-0.26696 -4.8195476,-1.17501 -4.8195476,-5.22939 0,-1.15489 0.4124546,-2.09931 1.0892697,-2.8391 -0.1091208,-0.26769 -0.4722115,-1.34327 0.1032779,-2.80016 0,0 0.8885633,-0.28461 2.9099155,1.08473 0.8437465,-0.2346 1.7491975,-0.35189 2.6488025,-0.35594 0.898307,0.004 1.803758,0.12134 2.6488,0.35594 2.020054,-1.36923 2.90667,-1.08473 2.90667,-1.08473 0.577437,1.45689 0.214337,2.53254 0.105238,2.80016 0.678115,0.73979 1.087972,1.68421 1.087972,2.8391 0,4.06479 -2.474077,4.9592 -4.83124,5.22097 0.379979,0.32689 0.718384,0.97233 0.718384,1.95962 0,1.41405 -0.01287,2.55527 -0.01287,2.90213 0,0.28313 0.190325,0.61252 0.727479,0.50924 4.201191,-1.40233 7.229972,-5.36515 7.229972,-10.03856 0,-5.84386 -4.737708,-10.58092 -10.58157,-10.58092"
       style="fill:#000000;fill-opacity:1;fill-rule:evenodd;stroke:none;stroke-width:0.64953464"
       id="path24-3" />
  </g>
</svg>
