<?xml version="1.0" encoding="UTF-8" standalone="no"?>
<svg
   xmlns:dc="http://purl.org/dc/elements/1.1/"
   xmlns:cc="http://creativecommons.org/ns#"
   xmlns:rdf="http://www.w3.org/1999/02/22-rdf-syntax-ns#"
   xmlns:svg="http://www.w3.org/2000/svg"
   xmlns="http://www.w3.org/2000/svg"
   id="svg14"
   version="1.1"
   height="18px"
   width="18px"
   fill="black"
   viewBox="0 0 24 24"
   enable-background="new 0 0 24 24">
  <metadata
     id="metadata20">
    <rdf:RDF>
      <cc:Work
         rdf:about="">
        <dc:format>image/svg+xml</dc:format>
        <dc:type
           rdf:resource="http://purl.org/dc/dcmitype/StillImage" />
        <dc:title></dc:title>
      </cc:Work>
    </rdf:RDF>
  </metadata>
  <defs
     id="defs18" />
  <g
     id="g4">
    <rect
       id="rect2"
       width="24"
       height="24"
       fill="none" />
  </g>
  <g
     id="g12">
    <g
       id="g10">
      <g
         id="g8">
        <path
           id="path76"
           transform="scale(1.3333333)"
           d="M 9.8339844 1.5019531 C 9.6088681 1.4931114 9.3837009 1.5181309 9.1660156 1.5761719 C 8.1820516 1.839673 7.4978606 2.7313643 7.4980469 3.75 L 7.7363281 7.0820312 L 6.4667969 8.4824219 C 5.5339133 9.5672474 5.0705897 11.548467 5.8652344 12.738281 C 6.3326773 13.438139 7.2753761 13.939202 8.2402344 14.128906 L 8.2480469 14.25 A 0.74999998 0.74999994 0 0 1 7.8730469 14.898438 A 0.74999998 0.74999994 0 0 1 7.1230469 14.898438 A 0.74999998 0.74999994 0 0 1 6.7480469 14.25 L 5.2480469 14.25 A 2.2499999 2.2499997 0 0 0 6.3730469 16.199219 A 2.2499999 2.2499997 0 0 0 8.6230469 16.199219 A 2.2499999 2.2499997 0 0 0 9.7480469 14.25 L 9.7402344 14.136719 C 9.8806425 14.105472 10.019625 14.074021 10.146484 14.021484 C 11.468456 13.473268 11.875723 12.537073 11.810547 11.107422 C 11.752114 9.8226877 10.576617 8.6537176 9.3554688 8.7617188 L 9.2734375 7.6191406 L 11.339844 5.3417969 C 12.060285 4.6215391 12.206903 3.5070872 11.697266 2.625 C 11.310458 1.9553018 10.606811 1.5311963 9.8339844 1.5019531 z M 9.8632812 3.0078125 C 10.116839 3.046707 10.338847 3.2145737 10.441406 3.4628906 C 10.556695 3.7431781 10.491964 4.0653061 10.277344 4.2792969 L 9.1269531 5.5488281 L 8.9980469 3.75 C 8.9976786 3.3919677 9.2504252 3.0835998 9.6015625 3.0136719 C 9.6893883 2.9961622 9.7787619 2.9948477 9.8632812 3.0078125 z M 7.8847656 9.1523438 L 8.1269531 12.546875 C 7.6927736 12.400173 7.2927959 12.178096 7.1113281 11.90625 C 6.7137176 11.310911 7.1362356 10.003314 7.6035156 9.4609375 L 7.8847656 9.1523438 z M 9.4628906 10.259766 C 9.977624 10.199609 10.205542 10.566009 10.3125 11.175781 C 10.344341 11.864952 10.230044 12.323476 9.6308594 12.601562 L 9.4628906 10.259766 z "
           style="fill:#000000;stroke-width:0.85714281" />
      </g>
    </g>
  </g>
</svg>
