<?xml version="1.0" encoding="UTF-8" standalone="no"?>
<svg
   xmlns:dc="http://purl.org/dc/elements/1.1/"
   xmlns:cc="http://creativecommons.org/ns#"
   xmlns:rdf="http://www.w3.org/1999/02/22-rdf-syntax-ns#"
   xmlns:svg="http://www.w3.org/2000/svg"
   xmlns="http://www.w3.org/2000/svg"
   enable-background="new 0 0 24 24"
   height="24"
   viewBox="0 0 24 24"
   width="24"
   version="1.1"
   id="svg16">
  <metadata
     id="metadata22">
    <rdf:RDF>
      <cc:Work
         rdf:about="">
        <dc:format>image/svg+xml</dc:format>
        <dc:type
           rdf:resource="http://purl.org/dc/dcmitype/StillImage" />
        <dc:title></dc:title>
      </cc:Work>
    </rdf:RDF>
  </metadata>
  <defs
     id="defs20" />
  <g
     id="g4">
    <rect
       fill="none"
       height="24"
       width="24"
       id="rect2" />
  </g>
  <g
     transform="translate(0,-2)"
     id="g14">
    <g
       id="g12">
      <path
         d="m 21,8 c -1.45,0 -2.26,1.44 -1.93,2.51 l -3.55,3.56 c -0.3,-0.09 -0.74,-0.09 -1.04,0 L 11.93,11.52 C 12.27,10.45 11.46,9 10,9 8.55,9 7.73,10.44 8.07,11.52 L 3.51,16.07 C 2.44,15.74 1,16.55 1,18 c 0,1.1 0.9,2 2,2 1.45,0 2.26,-1.44 1.93,-2.51 l 4.55,-4.56 c 0.3,0.09 0.74,0.09 1.04,0 l 2.55,2.55 C 12.73,16.55 13.54,18 15,18 c 1.45,0 2.27,-1.44 1.93,-2.52 l 3.56,-3.55 C 21.56,12.26 23,11.45 23,10 23,8.9 22.1,8 21,8 Z"
         id="path6" />
    </g>
  </g>
</svg>
